<?xml version="1.0" encoding="utf-8"?>
<!-- Generator: Adobe Illustrator 16.0.0, SVG Export Plug-In . SVG Version: 6.00 Build 0)  -->
<!DOCTYPE svg PUBLIC "-//W3C//DTD SVG 1.1//EN" "http://www.w3.org/Graphics/SVG/1.1/DTD/svg11.dtd">
<svg version="1.1" id="Layer_1" xmlns="http://www.w3.org/2000/svg" xmlns:xlink="http://www.w3.org/1999/xlink" x="0px" y="0px"
	 width="564.267px" height="398.98px" viewBox="0 0 564.267 398.98" enable-background="new 0 0 564.267 398.98"
	 xml:space="preserve">
<g>
	<g>
		<g>
			<polygon fill="#B0549C" points="243.069,153.424 207.566,188.932 172.064,153.424 207.566,117.917 			"/>
			<g>
				<g>
					<g>
						<polygon fill="#D4AED2" points="172.064,82.416 136.557,117.917 136.557,117.917 172.064,153.424 207.566,117.917 						"/>
					</g>
				</g>
				<g>
					<g>
						<polygon fill="#D8E7BB" points="207.566,46.914 243.069,82.416 278.576,46.914 278.576,46.914 243.069,11.407 						"/>
					</g>
				</g>
			</g>
			<polygon fill="#A7CC73" points="278.576,117.917 243.069,82.416 278.576,46.914 314.083,82.416 			"/>
			<g>
				<g>
					<g>
						<polygon fill="#D8E7BB" points="278.576,46.914 314.083,82.416 349.581,46.914 349.581,46.914 314.083,11.407 						"/>
					</g>
				</g>
				<g>
					<g>
						<polygon fill="#D4AED2" points="385.083,82.416 349.581,117.917 385.083,153.424 420.584,117.917 385.083,82.416 						"/>
					</g>
				</g>
			</g>
			<polygon fill="#B0549C" points="314.083,153.424 349.581,117.917 385.083,153.424 349.581,188.932 			"/>
			<g>
				<g>
					<g>
						<polygon fill="#D4AED2" points="385.083,153.424 349.581,188.932 385.083,224.433 420.584,188.932 						"/>
					</g>
				</g>
				<g>
					<g>
						<polygon fill="#D8E7BB" points="314.28,224.216 278.783,259.723 314.28,295.23 349.792,259.723 						"/>
					</g>
				</g>
			</g>
			<polygon fill="#A7CC73" points="278.783,188.72 314.28,224.216 278.783,259.723 243.281,224.216 			"/>
		</g>
	</g>
	<g>
		<path fill="#FFFFFF" d="M82.406,337.234H41.275v52.593h40.93c19.314,0,22.973-9.242,22.973-26.302
			C105.178,343.375,99.858,337.234,82.406,337.234z M83.077,380.074H52.225v-33.087h31.91c6.28,0,10.099,0.949,10.099,14.211v4.923
			C94.233,379.134,90.022,380.074,83.077,380.074z"/>
		<polygon fill="#FFFFFF" points="125.602,367.668 164.788,367.668 164.788,357.916 125.602,357.916 125.602,346.987 
			166.383,346.987 166.383,337.234 114.652,337.234 114.652,389.827 166.656,389.827 166.656,380.074 125.602,380.074 		"/>
		<polygon fill="#FFFFFF" points="187.514,367.668 226.696,367.668 226.696,357.916 187.514,357.916 187.514,346.987 
			228.301,346.987 228.301,337.234 176.563,337.234 176.563,389.827 228.564,389.827 228.564,380.074 187.514,380.074 		"/>
		<path fill="#FFFFFF" d="M280.346,337.234h-41.864v52.593h10.95v-18.964h29.645c16.048,0,17.251-7.245,17.251-18.318
			C296.328,339.839,289.944,337.234,280.346,337.234z M249.432,346.987h29.382c5.656,0,6.569,1.435,6.569,4.896v4.593
			c0,2.858-1.011,4.629-6.037,4.629h-29.914V346.987z"/>
		<path fill="#FFFFFF" d="M363.611,337.234h-40.729v52.593h10.944v-19.031h29.588c5.707,0,7.364,0.815,7.364,6.233v12.798h10.547
			V375.3c0-3.963-1.285-6.878-3.906-8.809c2.415-1.501,4.51-4.268,4.51-9.489v-3.927
			C381.929,343.04,378.926,337.234,363.611,337.234z M333.827,346.987h27.457c9.701,0,9.701,1.733,9.701,4.896v4.387
			c0,2.703-0.609,4.778-8.106,4.778h-29.052V346.987z"/>
		<path fill="#FFFFFF" d="M420.368,337.234l-31.245,52.593h12.545l5.99-10.177h36.044l5.991,10.177h12.544l-31.239-52.593H420.368z
			 M413.391,369.898l12.291-20.78l12.287,20.78H413.391z"/>
		<polygon fill="#FFFFFF" points="506.893,337.234 485.731,358.649 464.575,337.234 449.548,337.234 480.256,368.159 
			480.256,389.827 491.211,389.827 491.211,368.159 521.919,337.234 		"/>
	</g>
</g>
<g>
	<g>
		<polygon fill="#D8E7BB" points="243.273,224.216 207.776,259.723 243.273,295.23 278.785,259.723 		"/>
	</g>
</g>
<g>
	<g>
		<polygon fill="#D4AED2" points="172.064,153.427 136.557,188.928 136.557,188.928 172.064,224.435 207.566,188.928 		"/>
	</g>
</g>
<g>
</g>
<g>
</g>
<g>
</g>
<g>
</g>
<g>
</g>
<g>
</g>
</svg>
