<?xml version="1.0" encoding="utf-8"?>
<!-- Generator: Adobe Illustrator 16.0.0, SVG Export Plug-In . SVG Version: 6.00 Build 0)  -->
<!DOCTYPE svg PUBLIC "-//W3C//DTD SVG 1.1//EN" "http://www.w3.org/Graphics/SVG/1.1/DTD/svg11.dtd">
<svg version="1.1" id="Layer_1" xmlns="http://www.w3.org/2000/svg" xmlns:xlink="http://www.w3.org/1999/xlink" x="0px" y="0px"
	 width="293px" height="120px" viewBox="0 0 293 120" enable-background="new 0 0 293 120" xml:space="preserve">
<g>
	<g>
		<g>
			
				<rect x="125.913" y="25.126" transform="matrix(0.7071 -0.7071 0.7071 0.7071 16.8794 101.7925)" fill="#AF549B" width="10.791" height="10.791"/>
			<g>
				<g>
					<g>
						<polygon fill="#D3ADD1" points="123.678,15.261 116.047,22.891 116.047,22.891 123.678,30.522 131.309,22.891 						"/>
					</g>
				</g>
				<g>
					<g>
						<polygon fill="#D7E6BA" points="131.309,7.631 138.939,15.261 146.57,7.631 146.57,7.631 138.939,0 						"/>
					</g>
				</g>
			</g>
			
				<rect x="141.174" y="9.865" transform="matrix(0.7072 0.7071 -0.7071 0.7072 53.7131 -99.1647)" fill="#A6CB73" width="10.791" height="10.791"/>
			<g>
				<g>
					<g>
						<polygon fill="#D7E6BA" points="146.57,7.631 154.201,15.261 161.829,7.631 161.829,7.631 154.201,0 						"/>
					</g>
				</g>
				<g>
					<g>
						<polygon fill="#D3ADD1" points="169.46,15.261 161.829,22.891 169.46,30.522 177.09,22.891 169.46,15.261 						"/>
					</g>
				</g>
			</g>
			
				<rect x="156.436" y="25.126" transform="matrix(-0.707 0.7072 -0.7072 -0.707 297.8265 -62.3533)" fill="#AF549B" width="10.79" height="10.792"/>
			<g>
				<g>
					<g>
						
							<rect x="164.064" y="32.757" transform="matrix(0.7071 -0.7071 0.7071 0.7071 22.6559 131.0009)" fill="#D3ADD1" width="10.792" height="10.791"/>
					</g>
				</g>
				<g>
					<g>
						
							<rect x="148.847" y="47.972" transform="matrix(0.707 -0.7072 0.7072 0.707 7.4537 124.7248)" fill="#D7E6BA" width="10.79" height="10.79"/>
					</g>
				</g>
			</g>
			
				<rect x="141.22" y="40.343" transform="matrix(-0.7071 -0.7071 0.7071 -0.7071 217.948 181.749)" fill="#A6CB73" width="10.788" height="10.79"/>
		</g>
	</g>
	<g>
		<g>
			
				<rect x="133.587" y="47.972" transform="matrix(0.707 -0.7072 0.7072 0.707 2.9801 113.9278)" fill="#D7E6BA" width="10.791" height="10.79"/>
		</g>
	</g>
	<g>
		<g>
			<polygon fill="#D3ADD1" points="123.678,30.523 116.047,38.153 116.047,38.153 123.678,45.784 131.309,38.153 			"/>
		</g>
	</g>
</g>
<g>
	<path fill="#181716" d="M25.142,87.939H0.068V120H25.02c11.774,0,14.004-5.634,14.004-16.035
		C39.023,91.683,35.781,87.939,25.142,87.939z M25.551,114.056H6.744V93.884h19.452c3.828,0,6.155,0.579,6.155,8.664v3
		C32.352,113.481,29.786,114.056,25.551,114.056z"/>
	<polygon fill="#181716" points="51.474,106.493 75.362,106.493 75.362,100.546 51.474,100.546 51.474,93.884 76.334,93.884 
		76.334,87.939 44.799,87.939 44.799,120 76.501,120 76.501,114.056 51.474,114.056 	"/>
	<polygon fill="#181716" points="89.215,106.493 113.102,106.493 113.102,100.546 89.215,100.546 89.215,93.884 114.08,93.884 
		114.08,87.939 82.54,87.939 82.54,120 114.24,120 114.24,114.056 89.215,114.056 	"/>
	<path fill="#181716" d="M145.808,87.939h-25.522V120h6.675v-11.562h18.072c9.784,0,10.517-4.416,10.517-11.166
		C155.55,89.527,151.656,87.939,145.808,87.939z M126.961,93.884h17.911c3.448,0,4.005,0.876,4.005,2.985v2.8
		c0,1.743-0.618,2.821-3.682,2.821h-18.234V93.884z"/>
	<path fill="#181716" d="M196.565,87.939h-24.828V120h6.671v-11.601h18.037c3.479,0,4.489,0.496,4.489,3.8V120h6.429v-8.855
		c0-2.415-0.783-4.192-2.383-5.37c1.475-0.915,2.752-2.603,2.752-5.784v-2.394C207.732,91.479,205.899,87.939,196.565,87.939z
		 M178.408,93.884h16.738c5.913,0,5.913,1.059,5.913,2.985v2.675c0,1.648-0.373,2.912-4.941,2.912h-17.71V93.884z"/>
	<path fill="#181716" d="M231.163,87.939L212.117,120h7.647l3.65-6.204h21.973L249.04,120h7.648l-19.045-32.061H231.163z
		 M226.91,107.851l7.493-12.667l7.489,12.667H226.91z"/>
	<polygon fill="#181716" points="283.909,87.939 271.009,100.994 258.113,87.939 248.952,87.939 267.671,106.792 267.671,120 
		274.35,120 274.35,106.792 293.068,87.939 	"/>
</g>
</svg>
