<?xml version="1.0" encoding="utf-8"?>
<!-- Generator: Adobe Illustrator 16.0.0, SVG Export Plug-In . SVG Version: 6.00 Build 0)  -->
<!DOCTYPE svg PUBLIC "-//W3C//DTD SVG 1.1//EN" "http://www.w3.org/Graphics/SVG/1.1/DTD/svg11.dtd">
<svg version="1.1" id="Layer_1" xmlns="http://www.w3.org/2000/svg" xmlns:xlink="http://www.w3.org/1999/xlink" x="0px" y="0px"
	 width="274px" height="65px" viewBox="0 0 274 65" enable-background="new 0 0 274 65" xml:space="preserve">
<path fill="#00AFEA" d="M250.054,62.942l-7.689-0.001c-0.407-0.018-10.068-0.59-17.723-12.635
	c-7.47-11.758-5.656-24.929,0.412-30.87c3.23-3.164,7.401-4.906,11.744-4.906c3.195,0,6.436,0.93,9.43,2.699
	c2.994-1.769,6.234-2.699,9.429-2.699c4.343,0,8.513,1.742,11.744,4.906c6.068,5.94,7.883,19.112,0.412,30.87
	c-7.653,12.045-17.314,12.617-17.722,12.635L250.054,62.942z M242.489,59.578h7.475c0.659-0.047,8.494-0.824,15.009-11.076
	c7.143-11.245,4.268-22.557,0.074-26.662c-2.637-2.581-5.882-3.946-9.391-3.946c-2.866,0-5.805,0.941-8.499,2.721l-0.421,0.278
	h-1.01l-0.43-0.278c-2.693-1.78-5.634-2.721-8.499-2.721c-3.508,0-6.755,1.365-9.391,3.946c-4.193,4.104-7.069,15.417,0.075,26.662
	C234.017,58.787,241.968,59.541,242.489,59.578z"/>
<path fill="#00AFEA" d="M245.419,19.107c-1.673-6.848-3.297-12.064-4.684-15.715c0,0-0.265-0.666,0.262-0.841
	c0.527-0.176,2.156-0.495,2.156-0.495s0.58-0.123,0.723,0.598c0,0,1.321,6.785,3.155,16.023"/>
<path fill="#00AFEA" d="M240.788,42.924c0,0-4.543-3.314,1.524-7.756c0,0,1.521-1.236,1.728,0.365
	C244.248,37.135,243.118,44.504,240.788,42.924z"/>
<path fill="#00AFEA" d="M251.688,42.924c0,0,4.544-3.314-1.523-7.756c0,0-1.52-1.236-1.729,0.365
	C248.228,37.135,249.359,44.504,251.688,42.924z"/>
<path fill="#00AFEA" d="M246.249,17.808l2.479,0.095l1.63,0.157l0.096,0.276c0,0,0.948,0.151,0.322,0.452
	c-1.312,0.631-4.691,3.415-1.398,16.891l-0.29,0.271c0,0-1.191-3.995-1.951-7.162l-0.025-0.119c0,0-0.137-0.565-0.861-0.565h-0.022
	c-0.725,0-0.861,0.565-0.861,0.565l-0.025,0.119c-0.76,3.167-1.951,7.162-1.951,7.162L243.1,35.68
	c3.293-13.476-0.089-16.26-1.398-16.891c-0.626-0.301,0.32-0.452,0.32-0.452l0.098-0.276l1.632-0.157l2.476-0.095"/>
<path fill="#181716" d="M2.273,20.481H6.76v35.525H2.273V20.481z"/>
<path fill="#181716" d="M35.365,20.481h4.487v35.525h-4.207L16.574,28.521H16.48v27.485h-4.487V20.481H16.2l19.071,27.486h0.094
	V20.481z"/>
<path fill="#181716" d="M66.943,20.481h4.767L58.576,56.006h-3.739L41.702,20.481h4.768l10.19,28.373h0.093L66.943,20.481z"/>
<path fill="#181716" d="M88.811,47.732H72.264l-3.225,8.273H64.13l14.444-35.525H82.5l14.443,35.525h-4.908L88.811,47.732z
	 M80.537,26.372l-6.731,17.434h13.462L80.537,26.372z"/>
<path fill="#181716" d="M102.376,40.861v15.145h-4.487V20.481h10.236c6.825,0,11.919,3.927,11.919,10.751
	c0,6.356-5.001,10.283-10.797,10.611l13.835,14.162h-6.31L102.376,40.861z M102.376,38.104c0.608,0.047,1.262,0.047,3.927,0.047
	c6.871,0,9.255-2.992,9.255-6.872c0-4.16-2.852-6.87-7.526-6.87h-5.656V38.104z"/>
<path fill="#181716" d="M124.653,20.481h4.487v35.525h-4.487V20.481z"/>
<path fill="#181716" d="M155.078,47.732h-16.546l-3.227,8.273h-4.908l14.444-35.525h3.927l14.442,35.525h-4.907L155.078,47.732z
	 M146.805,26.372l-6.73,17.434h13.461L146.805,26.372z"/>
<path fill="#181716" d="M187.84,20.481h4.487v35.525h-4.207l-19.07-27.485h-0.094v27.485h-4.487V20.481h4.207l19.07,27.486h0.094
	V20.481z"/>
<path fill="#181716" d="M202.56,24.688h-8.881v-4.207h22.249v4.207h-8.881v31.318h-4.487V24.688z"/>
</svg>
