<?xml version="1.0" encoding="utf-8"?>
<!-- Generator: Adobe Illustrator 16.0.0, SVG Export Plug-In . SVG Version: 6.00 Build 0)  -->
<!DOCTYPE svg PUBLIC "-//W3C//DTD SVG 1.1//EN" "http://www.w3.org/Graphics/SVG/1.1/DTD/svg11.dtd">
<svg version="1.1" id="Layer_1" xmlns="http://www.w3.org/2000/svg" xmlns:xlink="http://www.w3.org/1999/xlink" x="0px" y="0px"
	 width="274px" height="65px" viewBox="0 0 274 65" enable-background="new 0 0 274 65" xml:space="preserve">
<g>
	<g>
		<g>
			<path fill="#63B22B" d="M156.104,59.365l-6.897-0.001c-0.365-0.017-9.032-0.528-15.897-11.335
				c-6.7-10.547-5.075-22.361,0.368-27.691c2.898-2.838,6.641-4.4,10.536-4.4c2.866,0,5.771,0.834,8.458,2.422
				c2.688-1.588,5.593-2.422,8.458-2.422c3.896,0,7.637,1.563,10.535,4.4c5.444,5.329,7.071,17.145,0.369,27.691
				c-6.864,10.807-15.53,11.318-15.896,11.335L156.104,59.365z M149.319,56.348h6.704c0.592-0.043,7.621-0.74,13.466-9.936
				c6.407-10.088,3.827-20.236,0.064-23.918c-2.364-2.315-5.276-3.539-8.424-3.539c-2.57,0-5.206,0.843-7.623,2.439l-0.379,0.249
				h-0.905l-0.385-0.249c-2.417-1.597-5.053-2.439-7.624-2.439c-3.147,0-6.061,1.224-8.425,3.539
				c-3.762,3.682-6.341,13.83,0.067,23.918C141.719,55.637,148.851,56.313,149.319,56.348z"/>
			<path fill="#63B22B" d="M151.947,20.042c-1.501-6.143-2.959-10.822-4.202-14.098c0,0-0.237-0.598,0.236-0.755
				c0.473-0.157,1.934-0.443,1.934-0.443s0.52-0.109,0.647,0.537c0,0,1.187,6.086,2.83,14.374"/>
			<g>
				<path fill="#63B22B" d="M147.793,41.406c0,0-4.076-2.973,1.368-6.957c0,0,1.362-1.109,1.549,0.328
					C150.896,36.214,149.883,42.824,147.793,41.406z"/>
			</g>
			<g>
				<path fill="#63B22B" d="M157.571,41.406c0,0,4.075-2.973-1.368-6.957c0,0-1.362-1.109-1.55,0.328
					C154.467,36.214,155.481,42.824,157.571,41.406z"/>
			</g>
			<path fill="#63B22B" d="M152.692,18.878l2.222,0.083l1.463,0.143l0.088,0.246c0,0,0.849,0.138,0.288,0.407
				c-1.177,0.566-4.21,3.063-1.256,15.152l-0.26,0.243c0,0-1.069-3.582-1.75-6.424l-0.022-0.107c0,0-0.122-0.508-0.772-0.508h-0.021
				c-0.65,0-0.773,0.508-0.773,0.508l-0.022,0.107c-0.681,2.842-1.75,6.424-1.75,6.424l-0.26-0.243
				c2.953-12.09-0.078-14.586-1.255-15.152c-0.561-0.27,0.29-0.407,0.29-0.407l0.086-0.246l1.463-0.143l2.222-0.083"/>
		</g>
	</g>
	<g>
		<path fill="#181716" d="M39.657,20.939h4.276L32.15,52.808h-3.354L17.014,20.939h4.277l9.141,25.452h0.084L39.657,20.939z"/>
		<path fill="#181716" d="M75.699,20.939h4.025v31.868h-4.025V29.2h-0.084L62.743,53.143L49.869,29.2h-0.083v23.607H45.76V20.939
			h4.026l12.957,24.068L75.699,20.939z"/>
		<path fill="#181716" d="M89.966,24.714h-7.967v-3.774h19.959v3.774h-7.967v28.094h-4.025V24.714z"/>
		<path fill="#181716" d="M121.258,20.939h5.156l-14.297,15.557l14.633,16.312h-5.787l-12.704-14.55v14.55h-4.025V20.939h4.025
			v14.592L121.258,20.939z"/>
	</g>
	<path fill="#63B22B" d="M181.638,20.939h4.024v28.095h11.196v3.773h-15.221V20.939z"/>
	<path fill="#63B22B" d="M219.904,45.387h-14.843l-2.894,7.421h-4.402l12.957-31.868h3.521L227.2,52.808h-4.402L219.904,45.387z
		 M212.482,26.224l-6.037,15.641h12.075L212.482,26.224z"/>
	<path fill="#63B22B" d="M228.496,20.939h8.303c3.145,0,5.282,0.505,7.17,1.847c1.971,1.425,3.438,3.731,3.438,6.96
		c0,2.977-1.593,5.115-3.982,6.289v0.084c3.941,0.587,6.205,3.816,6.205,7.674c0,5.199-4.234,9.015-9.603,9.015h-11.53V20.939z
		 M237.554,34.818c3.27,0,5.828-1.886,5.828-4.988c0-1.636-0.587-2.977-1.594-3.9c-1.048-0.964-2.684-1.468-5.031-1.468h-4.235
		v10.356H237.554z M238.644,49.285c5.409,0,6.96-2.558,6.96-5.45c0-2.516-1.551-5.493-6.96-5.493h-6.122v10.943H238.644z"/>
</g>
</svg>
