<?xml version="1.0" encoding="utf-8"?>
<!-- Generator: Adobe Illustrator 16.0.0, SVG Export Plug-In . SVG Version: 6.00 Build 0)  -->
<!DOCTYPE svg PUBLIC "-//W3C//DTD SVG 1.1//EN" "http://www.w3.org/Graphics/SVG/1.1/DTD/svg11.dtd">
<svg version="1.1" id="Layer_1" xmlns="http://www.w3.org/2000/svg" xmlns:xlink="http://www.w3.org/1999/xlink" x="0px" y="0px"
	 width="107.26px" height="106.908px" viewBox="0 0 107.26 106.908" enable-background="new 0 0 107.26 106.908"
	 xml:space="preserve">
<g>
	<path fill="#BCBEC0" d="M66.425,33.638c-2.211,0-4.452,0.424-6.646,1.225c-1.752,0.861-6.072,4.557-2.166,21.617
		c0.644,0.033,1.358,0.602,1.358,0.602c8.235,6.03,2.069,10.528,2.069,10.528c-3.165,2.142-4.694-7.857-4.415-10.031
		c0.067-0.503,0.234-0.786,0.443-0.945c-0.556-1.915-1.513-5.313-2.206-8.21L54.83,48.26c0,0-0.188-0.765-1.169-0.765h-0.031
		c-0.984,0-1.168,0.765-1.168,0.765l-0.033,0.163c-0.696,2.897-1.655,6.295-2.208,8.21c0.209,0.157,0.378,0.439,0.443,0.945
		c0.281,2.174-1.253,12.173-4.415,10.031c0,0-6.166-4.498,2.069-10.528c0,0,0.715-0.568,1.359-0.602
		c3.867-16.872-0.314-20.67-2.102-21.583c-2.226-0.822-4.5-1.258-6.742-1.258c-4.761,0-9.17,1.852-12.747,5.355
		c-5.692,5.57-9.595,20.924,0.101,36.187c8.869,13.958,19.661,14.982,20.369,15.033H58.7c0.898-0.063,11.529-1.119,20.371-15.033
		c9.698-15.262,5.794-30.616,0.1-36.187C75.596,35.489,71.186,33.638,66.425,33.638z"/>
	<path fill="#BCBEC0" d="M0,0v106.908h107.26V0H0z M82.924,77.627C72.536,93.976,59.427,94.751,58.871,94.774l-0.05,0.004
		l-10.435-0.004c-0.553-0.023-13.663-0.798-24.054-17.147C14.196,61.668,16.654,43.793,24.89,35.73
		c4.386-4.295,10.047-6.662,15.943-6.662c3.632,0,7.304,0.899,10.791,2.6c-1.947-7.533-3.82-13.427-5.448-17.716
		c0,0-0.359-0.903,0.356-1.144c0.715-0.236,2.926-0.668,2.926-0.668s0.786-0.167,0.979,0.809c0,0,1.579,8.093,3.825,19.438
		c3.886-2.166,8.049-3.319,12.163-3.319c5.898,0,11.554,2.366,15.939,6.662C90.604,43.792,93.066,61.668,82.924,77.627z"/>
</g>
<g>
</g>
<g>
</g>
<g>
</g>
<g>
</g>
<g>
</g>
<g>
</g>
</svg>
